<?xml version="1.0" standalone="no"?><!DOCTYPE svg PUBLIC "-//W3C//DTD SVG 1.1//EN" "http://www.w3.org/Graphics/SVG/1.1/DTD/svg11.dtd"><svg t="1774236327400" class="icon" viewBox="0 0 1418 1024" version="1.1" xmlns="http://www.w3.org/2000/svg" p-id="2423" width="44.3125" height="32" xmlns:xlink="http://www.w3.org/1999/xlink"><path d="M1055.242 333.742a226.414 130.126 60 1 0 225.386-130.127 226.414 130.126 60 1 0-225.386 130.127z" fill="#83A4FF" p-id="2424"></path><path d="M1054.905 72.453l226.307 392.319-620.889 358.427L433.91 431.04l620.996-358.588z" fill="#83A4FF" p-id="2425"></path><path d="M434.417 692.202a226.414 130.126 60 1 0 225.385-130.126 226.414 130.126 60 1 0-225.385 130.126z" fill="#5B79FB" p-id="2426"></path><path d="M417.586 704.402a105.07 60.402 60 1 0 104.62-60.403 105.07 60.402 60 1 0-104.62 60.403z" fill="#83A4FF" p-id="2427"></path><path d="M417.42 583.152L522.439 765.22 210.027 944.65 104.956 762.635 417.42 583.152z" fill="#83A4FF" p-id="2428"></path><path d="M858.719 447.206a351.314 351.314 0 0 1 44.776 126.032l212.998-122.96a350.236 350.236 0 0 0-44.777-125.816c-62.503-108.304-163.64-167.036-225.875-131.042L632.95 316.218c62.073-35.94 163.21 22.684 225.768 130.988z" fill="#FF7E71" p-id="2429"></path><path d="M1022.575 352.642a348.566 348.566 0 0 1 44.777 126.032l78.938-45.585a349.805 349.805 0 0 0-44.561-125.816c-62.558-108.304-163.695-167.036-225.93-131.042l-78.937 45.37c62.072-35.671 163.21 22.738 225.713 131.041z" fill="#ffffff" p-id="2430"></path><path d="M105.162 883.825a105.07 60.402 60 1 0 104.62-60.402 105.07 60.402 60 1 0-104.62 60.402z" fill="#FF7E71" p-id="2431"></path><path d="M185.726 911.835c-13.148 0-36.101-15.464-52.643-44.13-20.422-35.185-17.404-66.221-8.568-71.178a8.945 8.945 0 0 1 4.742-1.078c13.147 0 36.047 15.464 52.643 44.13 20.422 35.4 17.189 66.222 8.567 71.179a8.945 8.945 0 0 1-4.741 1.077z" fill="#5B79FB" p-id="2432"></path><path d="M291.12 776.752c-29.043-50.219-75.974-77.483-104.855-60.78l-81.363 46.501c28.881-16.65 75.813 10.776 104.855 60.833s29.097 104.532 0 121.182l81.31-46.662c29.365-16.542 29.042-70.694 0.053-121.074z" fill="#ffffff" p-id="2433"></path><path d="M803.49 924.067a65.952 37.933 0 1 0 131.904 0 65.952 37.933 0 1 0-131.905 0z" fill="#FF7E71" p-id="2434"></path><path d="M937.064 922.45l-131.905 0.216 0.054-226.145 131.959-0.27-0.108 226.2z" fill="#FF7E71" p-id="2435"></path><path d="M805.19 696.535a37.933 65.952 89.89 1 0 131.905-0.254 37.933 65.952 89.89 1 0-131.904 0.254z" fill="#ffffff" p-id="2436"></path></svg>